# xmcd
#
# Track frame offsets: 
#        150
#        18405
#        35843
#        58628
#        70231
#        87361
#        101694
#        127044
#        142374
#        159084
#        178299
#        196074
#
# Disc length: 2882 seconds
#
# Revision: 0
# Processed by: cddbd v1.5.2PL0 Copyright (c) Steve Scherf et al.
# Submitted via: ExactAudioCopy v1.0b1
#
DISCID=ae0b400c
DTITLE=Leah Marie King - Back To The Bridge
DYEAR=2009
DGENRE=Cuontry Blues
TTITLE0=Losing Kind
TTITLE1=Dreamin Crazy
TTITLE2=Prairie Man
TTITLE3=Just So You Know
TTITLE4=Sad Man
TTITLE5=Broken Dreams
TTITLE6=Banks Of The River
TTITLE7=Promises Are Coming
TTITLE8=Wrong One
TTITLE9=My World
TTITLE10=So Clear
TTITLE11=Birmingham
EXTD=
EXTT0=
EXTT1=
EXTT2=
EXTT3=
EXTT4=
EXTT5=
EXTT6=
EXTT7=
EXTT8=
EXTT9=
EXTT10=
EXTT11=
PLAYORDER=
